<svg xmlns="http://www.w3.org/2000/svg" viewBox="0 0 256 256" fill="none">
  <defs>
    <linearGradient id="kf-gradient" x1="0%" y1="0%" x2="100%" y2="100%">
      <stop offset="0%" stop-color="#818cf8" /> <!-- Tailwind indigo-400 -->
      <stop offset="100%" stop-color="#a855f7" /> <!-- Tailwind purple-500 -->
    </linearGradient>
    <linearGradient id="kf-gradient-dark" x1="0%" y1="0%" x2="100%" y2="100%">
      <stop offset="0%" stop-color="#4f46e5" /> <!-- Tailwind indigo-600 -->
      <stop offset="100%" stop-color="#7e22ce" /> <!-- Tailwind purple-700 -->
    </linearGradient>
  </defs>
  
  <!-- Outer glowing hexagon (The Foundry) -->
  <polygon points="128,16 224,72 224,184 128,240 32,184 32,72" fill="url(#kf-gradient-dark)" opacity="0.2"/>
  
  <!-- Right page / side of the block -->
  <path d="M128,40 L208,86 L208,170 L128,216 Z" fill="url(#kf-gradient)" opacity="0.9"/>
  
  <!-- Left page / side of the block -->
  <path d="M128,40 L48,86 L48,170 L128,216 Z" fill="url(#kf-gradient)" opacity="0.6"/>
  
  <!-- Center AI Spark (The Knowledge) -->
  <path d="M128,88 C128,114 146,128 168,128 C146,128 128,142 128,168 C128,142 110,128 88,128 C110,128 128,114 128,88 Z" fill="#ffffff" />
</svg>
